<?xml version="1.0" encoding="utf-8"?>
<!-- Generator: Adobe Illustrator 27.5.0, SVG Export Plug-In . SVG Version: 6.00 Build 0)  -->
<svg version="1.1" xmlns="http://www.w3.org/2000/svg" xmlns:xlink="http://www.w3.org/1999/xlink" x="0px" y="0px"
	 viewBox="0 0 500 500" style="enable-background:new 0 0 500 500;" xml:space="preserve">
<g id="BACKGROUND">
	<rect id="XMLID_1_" style="fill:#FFFFFF;" width="500" height="500"/>
</g>
<g id="OBJECTS">
	<g>
		<path style="fill:#81DD8B;" d="M307.249,240.403c5.736,13.055,0.892,29.243-9.55,38.952c-4.429,4.121-9.677,7.17-15.339,9.252
			c-11.557,7.213-26.779,5.141-40.131,1.785c-10.665-2.677-21.446-6.108-30.061-12.949c-8.604-6.83-14.712-17.76-13.087-28.638
			c1.147-7.722,5.991-14.829,5.513-22.615c-0.669-10.909-11.43-18.95-12.959-29.774c-1.402-9.921,5.279-19.078,12.226-26.301
			c6.958-7.213,14.935-14.383,17.229-24.144c2.348-9.974-1.848-20.193-2.804-30.39c-0.69-7.276,0.457-15.052,4.929-20.83
			c4.472-5.779,12.811-8.891,19.449-5.832c7.967,3.665,10.282,13.66,15.36,20.82c3.176,4.483,7.68,8.009,12.789,10.027
			c8.158,3.208,18.398,3.08,23.836,9.943c6.628,8.349,1.455,21.096,4.727,31.113c0.255,0.797,0.574,1.583,0.945,2.348
			c0.021,0.042,0.042,0.085,0.064,0.127c2.443,4.812,7.213,8.126,9.656,12.927c0.021,0.032,0.032,0.074,0.053,0.106
			c0.35,0.701,0.648,1.423,0.892,2.156c2.443,7.361-0.489,15.838-4.079,22.965c-3.76,7.446-8.392,15.371-6.82,23.56
			C301.163,230.599,304.965,235.209,307.249,240.403z"/>
		<path style="fill:#0A7F6E;" d="M286.865,184.262c-9.207,13.323-18.415,26.646-27.622,39.969V138.03
			c0-2.05-3.187-2.039-3.187,0.017v32.618c-7.632-6.426-15.263-12.852-22.895-19.277c-1.558-1.312-3.839,0.917-2.27,2.238
			c8.388,7.063,16.777,14.126,25.165,21.189l0.163,139.72c0,2.05,3.187,2.039,3.187-0.017l-0.163-84.739
			c0.051-0.056,0.103-0.109,0.149-0.175c10.078-14.582,20.155-29.165,30.233-43.747C290.79,184.168,288.024,182.584,286.865,184.262
			z"/>
		<path style="fill:#079B86;" d="M199.756,186.971c-0.018-0.682-1.08-0.68-1.062,0.006l0.155,5.921
			c0.018,0.682,1.08,0.68,1.062-0.006C199.86,190.918,199.808,188.945,199.756,186.971z"/>
		<path style="fill:#079B86;" d="M206.237,186.598c-0.128,1.782-0.256,3.565-0.383,5.347c-0.049,0.682,1.014,0.674,1.062-0.006
			c0.128-1.782,0.256-3.565,0.383-5.347C207.349,185.911,206.286,185.918,206.237,186.598z"/>
		<path style="fill:#079B86;" d="M203.963,180.098c-0.055-0.677-1.118-0.678-1.062,0.006c0.13,1.591,0.26,3.182,0.39,4.773
			c0.055,0.677,1.118,0.678,1.062-0.006C204.223,183.28,204.093,181.689,203.963,180.098z"/>
		<path style="fill:#079B86;" d="M292.792,258.581c-0.045-0.679-1.108-0.679-1.062,0.006c0.127,1.91,0.255,3.819,0.382,5.729
			c0.045,0.679,1.108,0.679,1.062-0.006C293.047,262.401,292.92,260.491,292.792,258.581z"/>
		<path style="fill:#079B86;" d="M298.566,257.622c-0.014-0.683-1.076-0.68-1.062,0.006c0.03,1.528,0.061,3.057,0.091,4.585
			c0.014,0.683,1.076,0.68,1.062-0.006C298.627,260.678,298.597,259.15,298.566,257.622z"/>
		<path style="fill:#079B86;" d="M294.845,250.05c-0.124-0.673-1.149-0.394-1.026,0.275c0.258,1.4,0.515,2.8,0.773,4.199
			c0.124,0.673,1.149,0.394,1.026-0.275C295.36,252.849,295.103,251.45,294.845,250.05z"/>
		<path style="fill:#079B86;" d="M288.224,149.018c-0.319-1.464-0.638-2.928-0.957-4.392c-0.146-0.669-1.171-0.392-1.026,0.275
			c0.319,1.464,0.638,2.928,0.957,4.392C287.344,149.962,288.369,149.685,288.224,149.018z"/>
		<path style="fill:#079B86;" d="M293.156,146.924c-0.255-1.146-0.509-2.292-0.764-3.437c-0.149-0.669-1.174-0.392-1.026,0.275
			c0.255,1.146,0.509,2.292,0.764,3.437C292.279,147.868,293.304,147.591,293.156,146.924z"/>
		<path style="fill:#079B86;" d="M289.177,137.752c-0.124-0.673-1.149-0.394-1.026,0.275l0.704,3.83
			c0.124,0.673,1.149,0.394,1.026-0.275C289.646,140.306,289.412,139.029,289.177,137.752z"/>
		<path style="fill:#079B86;" d="M204.78,249.656c-0.109-0.675-1.134-0.395-1.026,0.275c0.246,1.529,0.493,3.058,0.74,4.587
			c0.109,0.675,1.134,0.395,1.026-0.275C205.273,252.714,205.027,251.185,204.78,249.656z"/>
		<path style="fill:#079B86;" d="M210.044,249.068c-0.098-0.676-1.123-0.395-1.026,0.275c0.276,1.907,0.551,3.813,0.827,5.72
			c0.098,0.676,1.123,0.395,1.026-0.275C210.595,252.881,210.32,250.975,210.044,249.068z"/>
		<path style="fill:#079B86;" d="M208.546,257.246c-0.034-0.68-1.097-0.68-1.062,0.006c0.064,1.273,0.128,2.546,0.191,3.819
			c0.034,0.68,1.097,0.68,1.062-0.006C208.673,259.792,208.61,258.519,208.546,257.246z"/>
		<path style="fill:#079B86;" d="M243.336,276.203c-0.102-0.676-1.127-0.395-1.026,0.275c0.193,1.273,0.385,2.546,0.578,3.819
			c0.102,0.676,1.127,0.395,1.026-0.275C243.721,278.749,243.529,277.476,243.336,276.203z"/>
		<path style="fill:#079B86;" d="M248.31,276.202c-0.102-0.676-1.127-0.395-1.026,0.275c0.193,1.273,0.385,2.546,0.578,3.819
			c0.102,0.676,1.127,0.395,1.026-0.275C248.696,278.747,248.503,277.474,248.31,276.202z"/>
		<path style="fill:#079B86;" d="M246.582,273.91c-0.254-1.209-0.509-2.419-0.763-3.628c-0.141-0.67-1.166-0.393-1.026,0.275
			c0.254,1.21,0.509,2.419,0.763,3.629C245.697,274.856,246.722,274.578,246.582,273.91z"/>
		<path style="fill:#5770EA;" d="M236.022,211.228l0.251-0.116c1.496-1.929,3.576-3.442,5.934-4.077
			c2.358-0.635,4.989-0.343,7.052,0.971c0.872,0.549,1.654,1.3,2.065,2.251c0.389,0.905,0.414,1.942,0.264,2.92
			c-0.31,1.978-1.307,3.788-2.48,5.416c-4.779,6.654-12.351,10.595-18.718,15.76c-3.195-4.427-6.07-9.113-8.288-14.097
			c-1.392-3.107-2.538-6.412-2.555-9.821c-0.004-2.766,0.921-5.769,3.267-7.231c2.53-1.567,5.978-0.832,8.313,1.012
			C233.376,206,234.795,208.616,236.022,211.228z"/>
		<path style="fill:#5770EA;" d="M277.469,164.806l0.116-0.177c0.195-1.863,0.938-3.69,2.218-5.058
			c1.28-1.368,3.113-2.242,4.988-2.22c0.79,0.005,1.604,0.178,2.256,0.632c0.62,0.432,1.055,1.098,1.353,1.796
			c0.598,1.414,0.681,2.997,0.575,4.532c-0.422,6.269-3.762,11.901-5.822,17.843c-3.873-1.592-7.642-3.483-11.104-5.834
			c-2.164-1.462-4.247-3.152-5.638-5.366c-1.121-1.801-1.734-4.132-0.796-6.034c1.015-2.045,3.559-2.961,5.826-2.704
			C273.63,162.469,275.613,163.6,277.469,164.806z"/>
		<path style="fill:#5770EA;" d="M239.755,122.848l0.155-0.145c0.626-1.768,1.778-3.373,3.345-4.406
			c1.567-1.032,3.557-1.453,5.378-0.992c0.768,0.19,1.52,0.55,2.049,1.144c0.502,0.566,0.77,1.316,0.897,2.066
			c0.251,1.517-0.04,3.079-0.503,4.549c-1.881,6.006-6.454,10.708-9.853,16.011c-3.399-2.459-6.626-5.184-9.446-8.285
			c-1.765-1.931-3.397-4.065-4.232-6.548c-0.67-2.017-0.72-4.43,0.639-6.063c1.467-1.753,4.16-2.049,6.308-1.267
			C236.564,119.672,238.23,121.239,239.755,122.848z"/>
	</g>
	<path style="fill:#E0E0E0;" d="M57.199,432.401h390.379c0,0-19.32,20.285-196.382,20.285S57.199,432.401,57.199,432.401z"/>
	<g>
		<path style="fill:#00B09C;" d="M354.816,432.747l-0.444-0.099H88.014v-0.568c-8.283,0-16.566-1.222-24.492-3.617
			c-4.814-1.469-10.295-4.407-10.493-9.444c-0.136-3.407,2.333-6.357,4.963-8.542c8.135-6.765,18.862-9.789,29.429-10.345
			c10.567-0.568,21.109,1.111,31.553,2.802c-7.172-15.961-14.505-32.799-13.098-50.242c0.617-7.641,4.345-16.443,11.912-17.64
			c3.728-0.58,7.431,0.876,10.851,2.469c17.245,7.999,32.651,19.924,44.737,34.602c-0.506-18.653-0.765-38.342,8.345-54.624
			c1.629-2.938,3.753-5.864,6.901-7.061c4.543-1.728,9.579,0.741,13.455,3.679c15.381,11.666,23.097,30.898,27.022,49.81
			c9.987-11.838,21.541-22.344,34.244-31.17c7.629-5.308,17.875-10.048,25.751-5.111c5.728,3.592,7.678,10.962,8.456,17.677
			c2.049,17.616-1.123,36.688-12.777,50.057c15.579-2.012,31.898-3.95,46.625,1.531C346.015,402.33,358.236,417.6,354.816,432.747z"
			/>
		<path style="fill:#0098A0;" d="M323.968,409.694c-5.763-3.397-13.209-3.155-19.669-3.043c-15.213,0.262-30.252,3.256-44.484,8.578
			c7.526-9.009,13.495-19.232,17.437-30.313c2.601-7.309,7.532-20.422,0.051-26.581c-8.368-6.889-20.575,3.721-26.928,8.676
			c-9.702,7.568-18.436,16.285-26.13,25.88c-2.981-12.115-5.441-24.569-9.255-36.433c-2.38-7.404-8.546-16.388-17.637-14.267
			c-8.964,2.091-10.785,14.04-12.113,21.499c-2.064,11.595-2.354,23.419-1.071,35.11c-9.764-14.757-23.929-27.369-40.378-34.04
			c-6.071-2.462-14.757-4.14-19.595,1.577c-5.414,6.398-1.345,16.029,1.604,22.542c4.356,9.623,10.254,18.411,17.34,26.212
			c-7.348-2.04-14.855-3.404-22.47-3.97c-7.436-0.553-15.502-0.881-22.827,0.747c-4.938,1.098-10.379,4.508-10.534,10.157
			c-0.125,4.565,4.179,8.131,8.574,6.84c0.917-0.269,0.415-1.668-0.502-1.399c-5.002,1.469-7.712-4.25-5.888-8.175
			c1.356-2.918,4.183-4.652,7.142-5.592c4.89-1.553,10.635-1.434,15.712-1.423c11.185,0.023,22.261,1.769,32.966,4.976
			c0.787,0.236,1.08-0.819,0.627-1.293c-8.024-8.396-14.589-18.084-19.253-28.73c-2.091-4.773-4.464-10.372-3.357-15.686
			c1.362-6.538,7.787-8.268,13.605-7.266c9.886,1.703,19.584,8.372,27.215,14.567c8.138,6.606,15.027,14.561,20.513,23.482
			c0.38,0.618,1.45,0.247,1.352-0.478c-1.442-10.714-1.567-21.546-0.177-32.275c1.003-7.743,2.075-22.605,10.963-25.684
			c5.625-1.949,11.247,2.122,14.045,6.727c2.487,4.092,3.52,8.918,4.669,13.508c2.558,10.214,5.109,20.429,7.664,30.644
			c0.135,0.542,0.938,0.646,1.263,0.234c6.785-8.617,14.391-16.548,22.816-23.575c3.899-3.252,7.953-6.363,12.179-9.182
			c4.525-3.019,11.361-6.742,16.514-3.023c8.391,6.056,1.127,22.576-1.848,29.747c-4.176,10.065-10.037,19.297-17.244,27.459
			c-0.483,0.547,0.12,1.46,0.814,1.184c12.322-4.896,25.267-8.013,38.491-9.076c6.391-0.514,13.14-0.891,19.506,0.039
			c6.804,0.994,14.689,5.419,13.166,13.522c-0.177,0.941,1.282,1.227,1.459,0.286C331.275,417.183,328.432,412.326,323.968,409.694z
			"/>
		<path style="fill:#0098A0;" d="M249.484,386.254c-3.354,0.426-6.539,3.546-9.071,5.573c-3.275,2.622-6.351,5.494-9.195,8.579
			c-5.448,5.911-9.943,12.605-13.484,19.806c-1.534-7.031-3.491-13.954-6.007-20.703c-1.599-4.292-3.685-13.073-9.028-14.39
			c-6.093-1.501-7.262,6.34-7.685,10.429c-0.911,8.822-1.805,17.645-2.707,26.468c-6.224-5.11-12.663-9.947-19.353-14.434
			c-3.179-2.132-6.393-4.237-9.691-6.18c-2.442-1.439-5.238-2.798-8.139-1.969c-4.91,1.404-4.408,6.964-2.745,10.715
			c2.877,6.489,7.797,12.012,13.473,16.187c0.767,0.564,1.741-0.559,0.969-1.127c-4.492-3.304-8.317-7.333-11.206-12.116
			c-1.388-2.299-3.378-5.629-2.944-8.461c0.983-6.416,7.186-3.54,10.414-1.611c10.322,6.171,20.086,13.325,29.336,20.998
			c0.398,0.33,1.154,0.158,1.214-0.42c0.648-6.332,1.295-12.664,1.943-18.996c0.349-3.409,0.667-6.823,1.046-10.229
			c0.443-3.973,2.804-11.174,7.974-6.325c2.03,1.904,2.984,5.047,4.014,7.564c1.107,2.706,2.133,5.443,3.079,8.209
			c2.089,6.112,3.754,12.35,5.047,18.677c0.136,0.664,1.068,1.007,1.409,0.27c5.666-12.25,14.183-23.03,24.976-31.167
			c1.122-0.846,2.504-2.22,3.83-2.703c1.038-0.845,2.178-0.536,3.419,0.925c2.411-0.092,3.366,0.715,2.866,2.422
			c0.065,1.246-0.422,2.457-0.802,3.615c-1.129,3.44-2.526,6.805-4.049,10.088c-3.144,6.778-7.018,13.161-11.49,19.143
			c-0.57,0.763,0.553,1.736,1.127,0.969c5.708-7.636,10.458-15.925,13.996-24.786C253.485,397.605,258.083,385.163,249.484,386.254z
			"/>
	</g>
	<g>
		<path style="fill:#81DD8B;" d="M450.319,415.798c0,7.024-5.765,12.579-11.332,16.863v0.025H243.968
			c-4.604,0.716-22.85-6.777-21.837-11.826c0.988-4.925,6.123-7.703,10.752-9.653c8.876-3.716,18.875-6.876,27.936-3.654
			c-5.777-9.481-10.098-19.838-12.752-30.614c-1.79-7.32-2.37-16.208,3.271-21.208c6.172-5.469,15.961-2.864,23.084,1.309
			c10.048,5.876,18.492,14.196,25.64,23.38c1.173-15.492,2.494-31.491,9.802-45.193c1.926-3.605,4.308-7.061,7.617-9.431
			c3.321-2.358,7.715-3.493,11.579-2.173c3.049,1.037,5.444,3.469,7.382,6.036c10.258,13.591,10.703,32.059,9.456,49.032
			c10.283-9.69,21.862-17.998,34.33-24.652c4.567-2.432,9.357-4.679,14.492-5.32c3.679-0.469,7.666-0.025,10.653,2.197
			c4,2.963,5.345,8.579,4.407,13.468c-0.951,4.901-3.802,9.197-6.901,13.11c-5.74,7.222-12.554,13.591-20.146,18.838
			c17.961-2.259,36.947-4.382,53.551,2.827C443.344,402.231,450.319,408.107,450.319,415.798z"/>
		<path style="fill:#00B7B7;" d="M430.359,409.193c-2.847-3.305-7.449-3.812-11.518-4.174c-5.698-0.507-11.422-0.729-17.142-0.678
			c-11.371,0.102-22.671,1.363-33.81,3.604c3.583-4.343,7.166-8.687,10.748-13.03c3.375-4.092,7.336-8.085,10.139-12.602
			c3.408-5.493,1.742-13.926-6.228-12.373c-4.155,0.81-7.894,3.62-11.381,5.863c-4.51,2.901-8.899,5.989-13.151,9.257
			c-7.837,6.023-15.155,12.674-21.992,19.805c0.84-10.525,0.496-21.096-1.216-31.529c-0.897-5.467-1.727-19.246-9.578-19.52
			c-7.491-0.261-10.324,12.029-12.04,17.221c-3.427,10.366-5.528,21.089-6.416,31.961c-7.631-7.529-15.181-15.158-22.934-22.56
			c-4.083-3.897-11.826-8.607-16.318-2.418c-4.058,5.591,0.293,14.361,2.949,19.536c3.473,6.769,8.231,12.732,13.917,17.745
			c-7.772-0.629-15.574-0.344-23.265,1.049c-4.432,0.802-12.971,1.69-14.483,7.061c-1.301,4.622,3.734,6.528,7.374,6.667
			c3.765,0.143,7.635-0.629,11.37-1.04c4.72-0.52,9.439-1.04,14.159-1.56c0.948-0.104,0.841-1.587-0.112-1.482l-17.699,1.95
			c-2.773,0.306-5.675,0.876-8.478,0.607c-3.69-0.354-7.871-3.771-3.196-7.221c4.417-3.26,11.527-3.726,16.791-4.33
			c6.531-0.75,13.09-0.719,19.625-0.032c0.693,0.073,1.244-0.787,0.627-1.293c-5.257-4.313-9.776-9.401-13.31-15.219
			c-3.027-4.984-8.32-14.077-5.754-20.153c2.4-5.682,8.801-3.771,12.57-0.781c3.021,2.396,5.651,5.369,8.395,8.07
			c5.963,5.868,11.925,11.736,17.888,17.604c0.371,0.365,1.174,0.131,1.214-0.42c0.617-8.647,1.982-17.211,4.203-25.594
			c1.21-4.564,2.661-9.062,4.35-13.471c1.311-3.423,3.023-8.88,6.937-10.162c8.403-2.75,9.843,18.032,10.433,22.741
			c1.183,9.435,1.27,18.948,0.369,28.411c-0.069,0.726,0.758,1.197,1.293,0.627c11.573-12.317,24.671-23.122,39.045-32.021
			c3.577-2.214,11.504-7.466,14.124-1.098c1.903,4.625-2.644,9.183-5.307,12.412c-6.04,7.322-12.08,14.645-18.12,21.967
			c-0.514,0.623,0.128,1.33,0.814,1.184c17.89-3.81,37.78-5.845,55.96-2.883c5.22,0.85,11.822,5.671,6.751,11.108
			c-2.745,2.943-7.682,4.095-11.411,5.134c-9.086,2.531-18.543,3.215-27.913,2.238c-0.945-0.099-1.237,1.359-0.286,1.458
			c10.746,1.12,21.598,0.113,31.881-3.258C427.095,421.648,436.548,416.377,430.359,409.193z"/>
		<path style="fill:#00B7B7;" d="M307.799,423.1c-3.026-3.919-6.053-7.838-9.079-11.757c-0.582-0.754-1.81,0.085-1.223,0.844
			c3.026,3.919,6.053,7.838,9.079,11.757C307.158,424.699,308.386,423.86,307.799,423.1z"/>
		<path style="fill:#00B7B7;" d="M320.798,404.201c-0.031-0.957-1.513-0.843-1.482,0.112c0.147,4.542,0.295,9.085,0.443,13.627
			c0.031,0.957,1.513,0.843,1.482-0.112C321.093,413.286,320.946,408.744,320.798,404.201z"/>
		<path style="fill:#00B7B7;" d="M352.648,408.072c-2.225,3.117-4.451,6.235-6.676,9.352c-0.552,0.773,0.57,1.748,1.127,0.969
			c2.225-3.117,4.451-6.235,6.676-9.352C354.327,408.268,353.205,407.293,352.648,408.072z"/>
	</g>
	<g>
		<g>
			<path style="fill:#5770EA;" d="M161.415,425.05c9.358,1.02,18.504,3.856,26.8,8.307l-0.404,0.733
				c-13.735,1.774-27.565,2.826-41.406,3.134h-0.085c-0.064-3.973-0.287-7.956-0.669-11.918l0.032-0.212
				c-0.011-0.149-0.021-0.308-0.042-0.457c5.279-0.053,10.559-0.287,15.827-0.69C161.446,424.317,161.436,424.679,161.415,425.05z"
				/>
			<path style="fill:#482477;" d="M130.461,231.438c11.185-0.287,19.258-0.595,29.859-1.615
				c7.446,64.307,4.345,129.412,1.147,194.123c-5.269,0.404-10.548,0.637-15.827,0.69c-4.153-50.233-10.474-104.385-16.762-155.797
				c0.775-13.352,1.477-26.46,1.445-37.401H130.461z"/>
			<path style="fill:#60289C;" d="M128.878,268.839c-0.956,16.443-2.571,33.258-2.56,46.813l0,0
				c-11.323,34.915-23.284,69.619-35.882,104.099l-0.042-0.011c-0.085,0.149-0.382,0.149-0.584,0.074
				c-4.876-1.795-9.741-3.59-14.606-5.385l-0.382-0.053c0.042-0.244,0.074-0.478,0.106-0.722l-0.223-0.053
				c7.691-32.94,15.381-65.88,23.061-98.819c-9.337-22.657-13.682-47.365-12.63-71.849c0.319-7.414,1.243-15.137,4.95-21.489
				c18.759,1.87,37.656,2.326,56.489,1.392c4.281-0.212,8.657-0.52,12.641-1.986c0.393,2.995,0.765,5.98,1.105,8.976
				c-10.601,1.02-18.674,1.328-29.859,1.615h-0.138C130.355,242.379,129.654,255.486,128.878,268.839z"/>
			<path style="fill:#5770EA;" d="M90.139,420.589c7.712,4.557,14.723,10.325,20.65,17.038l-0.042,0.159
				c-8.53-2.496-17.07-5.003-25.6-7.489c-4.291-1.253-8.593-2.517-12.726-4.26l-0.276-0.085c1.2-3.771,2.093-7.648,2.677-11.578
				l0.382,0.053c4.865,1.795,9.73,3.59,14.606,5.385c0.202,0.074,0.499,0.074,0.584-0.074l0.042,0.011
				C90.341,420.026,90.234,420.313,90.139,420.589z"/>
		</g>
		<g>
			<path style="fill:#F5F6F3;" d="M184.04,177.582c5.779-0.223,11.536-0.701,17.272-1.434
				c-13.852,6.384-27.682,12.779-41.523,19.173l-0.361,0.032c-0.425-4.769-0.967-9.539-1.636-14.276
				c7.128-4.748,14.17-9.613,21.138-14.584l-0.032-0.053c-0.351-0.584-0.701-1.168-1.052-1.753c0.744-0.223,1.487-0.446,2.231-0.68
				C181.491,168.5,182.818,173.026,184.04,177.582z"/>
			<path style="fill:#F5F6F3;" d="M101.855,182.309c-1.763-2.592-3.505-5.194-5.258-7.797c-1.349-2.008-2.698-4.026-4.015-6.055
				l0.372-0.244c8.806-5.396,17.984-10.197,27.448-14.361c3.569,7.064,6.798,14.308,9.677,21.691
				c8.317-4.546,16.709-8.944,25.185-13.182c4.939-2.475,9.911-4.897,14.903-7.266c0.499-0.234,0.998-0.478,1.498-0.712
				c0.202,0.329,0.393,0.648,0.595,0.977c1.859,3.102,3.718,6.214,5.587,9.326c0.351,0.584,0.701,1.168,1.052,1.753l0.032,0.053
				c-6.968,4.971-14.011,9.836-21.138,14.584c-6.841,4.568-13.756,9.018-20.745,13.373c-6.193,3.867-12.502,7.669-19.407,10.027
				l-0.287,0.212C112.053,197.319,106.922,189.83,101.855,182.309z"/>
			<path style="fill:#F5F6F3;" d="M169.987,154.713l0.181,0.382c-4.992,2.369-9.964,4.791-14.903,7.266l-0.106-0.202
				c-0.17-1.71-0.34-3.431-0.52-5.131c2.008-1.816,3.612-4.068,4.727-6.543c2.592-1.073,5.205-2.082,7.839-3.038
				C168.33,149.795,169.264,152.216,169.987,154.713z"/>
			<path style="fill:#00B09C;" d="M170.55,146.268c-1.115,0.382-2.241,0.775-3.346,1.179c-2.634,0.956-5.247,1.965-7.839,3.038
				c-1.115,2.475-2.719,4.727-4.727,6.543c0.181,1.7,0.351,3.42,0.52,5.131l0.106,0.202c-8.477,4.238-16.868,8.636-25.186,13.182
				c-2.879-7.383-6.108-14.627-9.677-21.691c-9.464,4.164-18.642,8.965-27.448,14.361l-0.372,0.244
				c-3.165-4.854-6.14-9.826-8.508-15.105c-2.486-5.545-4.185-12.279-1.02-17.474c1.264-2.071,3.176-3.654,5.056-5.194
				c0.882-0.722,1.753-1.434,2.634-2.146c6.055-4.95,12.141-9.879,18.249-14.765h0.085c-0.011,0.117-0.011,0.223-0.011,0.34
				l0.032,1.232c7.053,7.138,14.701,13.703,22.838,19.588l0.351-0.436c2.624-4.578,3.527-12.226,3.059-17.081
				c-0.117-1.285-0.329-2.379-0.637-3.165c-0.085-0.244-0.159-0.489-0.244-0.733c-0.297-0.882-0.595-1.774-0.882-2.656
				c8.477-0.882,21.34,1.455,23.656,4.206c1.71,2.029,6.331,9.029,7.733,11.281c0.807,1.317,1.678,2.571,2.369,3.888
				c-0.17,0.021-0.351,0.053-0.52,0.074l-0.117,0.032c0.744,2.762,2.411,8.041,2.496,8.338h0.011
				c0.085-0.011,0.159-0.011,0.244-0.021C169.859,141.19,170.22,143.729,170.55,146.268z"/>
			<path style="fill:#00B09C;" d="M159.428,195.354c0.733,8.296,1.105,16.624,1.115,24.952c-0.435,0.202-0.871,0.382-1.328,0.542
				c-3.983,1.466-8.36,1.774-12.641,1.986c-18.833,0.935-37.73,0.478-56.489-1.392c-0.064-0.011-0.127-0.011-0.191-0.021
				c4.504-7.425,9.199-14.744,14.043-21.956c-0.69-5.715-1.392-11.44-2.082-17.155c5.067,7.521,10.197,15.009,15.498,22.381
				l0.287-0.212c6.905-2.358,13.214-6.161,19.407-10.027c6.99-4.355,13.905-8.806,20.745-13.374
				C158.462,185.815,159.003,190.584,159.428,195.354z"/>
			<path style="fill:#00B09C;" d="M129.41,98.319v0.011c-0.032,0-0.064-0.011-0.096-0.011
				C129.346,98.319,129.378,98.319,129.41,98.319z"/>
			<path style="fill:#0A7F6E;" d="M121.411,152.705c-2.294-8.757-6.355-16.83-11.996-23.91c-0.426-0.535-1.178,0.216-0.757,0.746
				c5.523,6.932,9.481,14.866,11.726,23.439C120.558,153.642,121.584,153.367,121.411,152.705z"/>
			<path style="fill:#0A7F6E;" d="M144.754,120.84c-0.513-0.446-1.273,0.297-0.757,0.746c8.299,7.214,18.436,16.791,14.888,28.996
				c-0.191,0.656,0.837,0.925,1.028,0.268C163.573,138.26,153.347,128.309,144.754,120.84z"/>
			<path style="fill:#0A7F6E;" d="M126.771,140.81c-0.114-0.675-1.139-0.395-1.026,0.275c0.21,1.246,0.42,2.492,0.63,3.738
				c0.114,0.675,1.139,0.395,1.026-0.275C127.191,143.303,126.981,142.056,126.771,140.81z"/>
			<path style="fill:#0A7F6E;" d="M135.887,140.242c-0.088-0.669-1.151-0.672-1.062,0.006c0.15,1.145,0.3,2.29,0.45,3.435
				c0.088,0.669,1.151,0.672,1.062-0.006C136.187,142.531,136.037,141.386,135.887,140.242z"/>
			<path style="fill:#0A7F6E;" d="M148.136,137.242c-0.069-0.674-1.132-0.676-1.062,0.006c0.103,1.002,0.205,2.004,0.308,3.005
				c0.069,0.674,1.132,0.676,1.062-0.006C148.342,139.245,148.239,138.244,148.136,137.242z"/>
			<path style="fill:#0A7F6E;" d="M143.285,147.845c-0.119-0.674-1.144-0.394-1.026,0.275c0.143,0.812,0.286,1.623,0.43,2.435
				c0.119,0.674,1.144,0.394,1.026-0.275L143.285,147.845z"/>
			<path style="fill:#0A7F6E;" d="M130.697,153.572c-0.107-0.675-1.132-0.395-1.026,0.275c0.144,0.907,0.288,1.814,0.432,2.721
				c0.107,0.675,1.132,0.395,1.026-0.275C130.984,155.386,130.84,154.479,130.697,153.572z"/>
			<path style="fill:#0A7F6E;" d="M153.878,152.135c-0.04-0.68-1.103-0.679-1.062,0.006c0.048,0.812,0.095,1.623,0.143,2.435
				c0.04,0.68,1.102,0.679,1.062-0.006C153.973,153.758,153.925,152.946,153.878,152.135z"/>
			<path style="fill:#0A7F6E;" d="M138.979,157.848c-0.08-0.671-1.144-0.674-1.062,0.006c0.109,0.911,0.218,1.822,0.327,2.734
				c0.08,0.671,1.144,0.674,1.062-0.006C139.197,159.671,139.088,158.759,138.979,157.848z"/>
			<path style="fill:#0A7F6E;" d="M147.915,159.865c-0.06-0.676-1.123-0.677-1.062,0.006c0.084,0.956,0.169,1.912,0.253,2.867
				c0.06,0.676,1.123,0.677,1.062-0.006C148.084,161.776,148,160.82,147.915,159.865z"/>
			<path style="fill:#0A7F6E;" d="M133.169,166.167c-0.039-0.68-1.102-0.679-1.062,0.006l0.132,2.292
				c0.039,0.68,1.102,0.679,1.062-0.006L133.169,166.167z"/>
			<path style="fill:#0A7F6E;" d="M141.156,129.652c-0.133-0.672-1.158-0.393-1.026,0.275l0.567,2.866
				c0.133,0.672,1.158,0.393,1.026-0.275L141.156,129.652z"/>
			<path style="fill:#0A7F6E;" d="M120.102,135.236c-0.277-1.005-0.554-2.01-0.831-3.015c-0.182-0.66-1.208-0.385-1.026,0.275
				l0.831,3.015C119.258,136.171,120.284,135.897,120.102,135.236z"/>
			<path style="fill:#0A7F6E;" d="M89.571,137.527c-0.063-0.675-1.126-0.677-1.062,0.006c0.106,1.145,0.212,2.29,0.318,3.434
				c0.063,0.675,1.126,0.677,1.062-0.006C89.783,139.816,89.677,138.672,89.571,137.527z"/>
			<path style="fill:#0A7F6E;" d="M99.939,134.513c-0.079-0.671-1.143-0.674-1.062,0.006l0.391,3.299
				c0.079,0.671,1.143,0.674,1.062-0.006C100.199,136.712,100.069,135.613,99.939,134.513z"/>
			<path style="fill:#0A7F6E;" d="M110.953,137.24c-0.128-0.673-1.154-0.394-1.026,0.275c0.237,1.242,0.474,2.483,0.711,3.725
				c0.128,0.673,1.154,0.394,1.026-0.275C111.427,139.723,111.19,138.481,110.953,137.24z"/>
			<path style="fill:#0A7F6E;" d="M104.554,143.678c-0.11-0.675-1.135-0.395-1.026,0.275c0.179,1.1,0.357,2.2,0.536,3.3
				c0.11,0.675,1.135,0.395,1.026-0.275C104.911,145.878,104.733,144.778,104.554,143.678z"/>
			<path style="fill:#0A7F6E;" d="M95.592,150.28c-0.239-1.098-0.477-2.196-0.716-3.294c-0.145-0.669-1.171-0.392-1.026,0.275
				c0.239,1.098,0.477,2.196,0.716,3.294C94.712,151.224,95.737,150.947,95.592,150.28z"/>
			<path style="fill:#0A7F6E;" d="M92.775,157.432c-0.125-0.673-1.15-0.394-1.026,0.275c0.178,0.957,0.356,1.914,0.534,2.872
				c0.125,0.673,1.15,0.394,1.026-0.275C93.131,159.347,92.953,158.389,92.775,157.432z"/>
			<path style="fill:#0A7F6E;" d="M103.078,156l-0.704-3.154c-0.149-0.669-1.175-0.392-1.026,0.275l0.704,3.154
				C102.201,156.944,103.227,156.667,103.078,156z"/>
			<path style="fill:#0A7F6E;" d="M112.782,150.565c-0.286-0.907-0.573-1.814-0.859-2.721c-0.206-0.651-1.232-0.379-1.026,0.275
				c0.286,0.907,0.573,1.814,0.859,2.721C111.961,151.491,112.988,151.219,112.782,150.565z"/>
			<path style="fill:#0A7F6E;" d="M155.625,124.262c-0.422-1.053-0.845-2.107-1.267-3.16c-0.252-0.628-1.28-0.359-1.026,0.275
				c0.422,1.053,0.845,2.106,1.267,3.16C154.851,125.164,155.879,124.896,155.625,124.262z"/>
			<path style="fill:#0A7F6E;" d="M163.376,128.93c-0.228-0.957-0.455-1.915-0.683-2.872c-0.158-0.666-1.184-0.39-1.026,0.275
				c0.228,0.957,0.455,1.915,0.683,2.872C162.508,129.872,163.534,129.595,163.376,128.93z"/>
			<path style="fill:#0A7F6E;" d="M161.49,136.24c-0.284-1.003-0.569-2.006-0.853-3.009c-0.187-0.658-1.213-0.384-1.026,0.275
				l0.853,3.009C160.651,137.173,161.677,136.899,161.49,136.24z"/>
			<path style="fill:#0A7F6E;" d="M166.475,138.394c-0.094-0.676-1.119-0.395-1.026,0.275c0.132,0.956,0.265,1.913,0.397,2.869
				c0.094,0.676,1.119,0.395,1.026-0.275C166.74,140.307,166.607,139.35,166.475,138.394z"/>
			<path style="fill:#0A7F6E;" d="M106.533,202.129c-0.081,1.43-0.163,2.861-0.244,4.291c-0.039,0.683,1.024,0.676,1.062-0.006
				c0.081-1.43,0.163-2.861,0.244-4.291C107.634,201.441,106.571,201.447,106.533,202.129z"/>
			<path style="fill:#0A7F6E;" d="M122.68,205.841c-0.036-0.68-1.098-0.68-1.062,0.006c0.048,0.907,0.096,1.814,0.143,2.721
				c0.036,0.68,1.098,0.68,1.062-0.006C122.775,207.656,122.727,206.748,122.68,205.841z"/>
			<path style="fill:#0A7F6E;" d="M136.512,204.988v2.864c0,0.683,1.062,0.68,1.062-0.006v-2.864
				C137.575,204.299,136.512,204.302,136.512,204.988z"/>
			<path style="fill:#0A7F6E;" d="M148.595,204.41c-0.066-0.674-1.129-0.677-1.062,0.006c0.093,0.955,0.187,1.91,0.28,2.865
				c0.066,0.674,1.129,0.677,1.062-0.006C148.781,206.32,148.688,205.365,148.595,204.41z"/>
			<path style="fill:#0A7F6E;" d="M156.906,201.837c-0.122-0.674-1.147-0.394-1.026,0.275c0.19,1.051,0.38,2.101,0.57,3.151
				c0.122,0.674,1.147,0.394,1.026-0.275C157.286,203.938,157.096,202.888,156.906,201.837z"/>
			<path style="fill:#0A7F6E;" d="M151.754,193.381c-0.061-0.675-1.124-0.677-1.062,0.006l0.286,3.151
				c0.061,0.675,1.124,0.677,1.062-0.006C151.945,195.482,151.849,194.431,151.754,193.381z"/>
			<path style="fill:#0A7F6E;" d="M142.904,196.529c-0.057-0.676-1.12-0.678-1.062,0.006c0.084,1.003,0.168,2.007,0.253,3.01
				c0.057,0.677,1.12,0.678,1.062-0.006C143.072,198.536,142.988,197.533,142.904,196.529z"/>
			<path style="fill:#0A7F6E;" d="M140.988,212.001c-0.036-0.68-1.098-0.68-1.062,0.006l0.142,2.721
				c0.036,0.68,1.098,0.68,1.062-0.006L140.988,212.001z"/>
			<path style="fill:#0A7F6E;" d="M129.966,215.303c-0.143-0.621-0.286-1.241-0.43-1.862c-0.154-0.668-1.18-0.391-1.026,0.275
				c0.143,0.621,0.286,1.241,0.43,1.862C129.094,216.245,130.119,215.969,129.966,215.303z"/>
			<path style="fill:#0A7F6E;" d="M155.073,214.29c-0.184-0.766-0.368-1.531-0.551-2.297c-0.16-0.666-1.186-0.39-1.026,0.275
				c0.184,0.766,0.368,1.531,0.552,2.297C154.207,215.231,155.232,214.955,155.073,214.29z"/>
			<path style="fill:#0A7F6E;" d="M116.67,212.286c-0.064-0.675-1.127-0.677-1.062,0.006l0.285,3.008
				c0.064,0.675,1.127,0.677,1.062-0.006L116.67,212.286z"/>
			<path style="fill:#0A7F6E;" d="M103.023,212.581c-0.094,1.05-0.188,2.101-0.282,3.151c-0.061,0.68,1.002,0.671,1.062-0.006
				c0.094-1.05,0.188-2.101,0.282-3.151C104.146,211.895,103.084,211.904,103.023,212.581z"/>
			<path style="fill:#0A7F6E;" d="M97.286,214.877c-0.095,0.716-0.191,1.432-0.286,2.148c-0.089,0.668,0.938,0.946,1.028,0.268
				c0.095-0.716,0.191-1.432,0.286-2.148C98.404,214.476,97.377,214.198,97.286,214.877z"/>
			<path style="fill:#0A7F6E;" d="M112.738,205.69c-0.112-0.675-1.138-0.395-1.026,0.275c0.135,0.813,0.271,1.626,0.406,2.439
				c0.112,0.675,1.137,0.395,1.026-0.275C113.009,207.316,112.873,206.503,112.738,205.69z"/>
		</g>
		<g>
			<path style="fill:#FCD272;" d="M211.18,153.268c1.498-0.351,3.049-0.436,4.249,0.436c1.253,0.914,1.668,2.592,1.88,4.132
				c0.616,4.514,0.191,9.443-2.602,13.044c-0.382,0.489-0.818,0.967-1.392,1.19c-0.499,0.202-1.062,0.202-1.593,0.149
				c-0.127-0.011-0.244-0.021-0.372-0.042c-0.977-0.106-1.944-0.361-2.847-0.733c-1.763-0.744-3.293-1.976-4.206-3.643
				c-1.19-2.178-1.2-4.791-1.179-7.276c0-1.19,0.021-2.422,0.489-3.516c0.329-0.775,0.882-1.423,1.53-1.944
				c0.659-0.531,1.434-0.924,2.231-1.19c0.733-0.244,1.498-0.393,2.263-0.478C210.139,153.332,210.66,153.289,211.18,153.268z"/>
			<path style="fill:#81DD8B;" d="M208.301,80.898l-0.053,0.212c-1.593,4.461-4.769,8.349-8.838,10.814
				c-3.92,2.369-8.647,3.389-13.193,2.857c0.914-4.95,4.047-9.454,8.37-12.014C198.656,80.346,203.723,79.666,208.301,80.898z"/>
			<path style="fill:#FCD272;" d="M180.078,164.007c-0.744,0.234-1.487,0.457-2.231,0.68c-1.87-3.112-3.728-6.225-5.587-9.326
				l0.053-0.032c1.264-1.36,2.539-2.698,3.835-4.015c3.888-3.951,7.945-7.733,12.152-11.334c0.446-0.382,1.083-0.754,1.615-0.754
				c0.266,0,0.51,0.096,0.69,0.329c0.287,0.372,0.212,0.903,0.117,1.36c-0.616,2.826-1.604,5.577-2.932,8.147
				c3.994-1.285,8.158-2.071,12.343-2.316c2.496-0.149,5.152-0.064,7.287,1.232c0.308,0.181,0.605,0.404,0.701,0.744
				c0.138,0.51-0.266,0.988-0.637,1.36c-1.508,1.477-3.134,2.815-4.854,4.015C195.979,158.781,187.992,161.553,180.078,164.007z"/>
			<path style="fill:#81DD8B;" d="M207.356,97.798c-0.584,4.769-2.486,9.496-5.97,12.8c-3.569,3.389-8.933,5.046-13.607,3.527
				c-0.011-0.159-0.021-0.319-0.032-0.478l0.542-0.042c1.009-4.345,3.484-8.339,6.926-11.175
				C198.614,99.636,202.948,97.979,207.356,97.798z"/>
			<path style="fill:#81DD8B;" d="M185.124,86.358c-0.042,0.085-0.096,0.17-0.138,0.244c-3.197-1.455-5.237-4.716-6.618-7.977
				c-0.765-1.816-1.413-3.728-1.476-5.704c-0.106-2.783,0.945-5.492,2.294-7.924c1.147-2.061,2.539-4.005,4.132-5.768
				c2.995,3.782,4.812,8.487,5.131,13.299C188.756,77.329,187.588,82.215,185.124,86.358z"/>
			<path style="fill:#81DD8B;" d="M186.887,103.853c0.021,0.181,0.032,0.372,0.053,0.563c-4.759,1.009-9.73,1.073-14.51,0.191
				c-1.657-0.297-3.335-0.733-4.716-1.689c-1.402-0.977-2.411-2.411-3.357-3.845c2.666-3.282,7.563-4.355,11.685-3.24
				c4.398,1.179,7.988,4.398,10.739,8.03L186.887,103.853z"/>
			<path style="fill:#482477;" d="M215.408,125.735c-0.382,2.634-0.765,5.269-1.137,7.903c-1.094,0.127-2.178,0.244-3.272,0.372
				c-0.34,6.331-0.818,12.662-1.423,18.982l0.053,0.404c-0.765,0.085-1.53,0.234-2.263,0.478c-0.797,0.266-1.572,0.659-2.231,1.19
				c-0.648,0.52-1.2,1.168-1.53,1.944c-0.467,1.094-0.489,2.326-0.489,3.516c-0.021,2.486-0.011,5.099,1.179,7.276
				c0.914,1.668,2.443,2.9,4.206,3.644l-0.011,0.032c0.096,1.211,0.064,2.443-0.096,3.643c-2.358,0.393-4.716,0.733-7.085,1.03
				c-5.736,0.733-11.493,1.211-17.272,1.434c-1.222-4.557-2.549-9.082-3.962-13.575c7.914-2.454,15.902-5.226,22.551-9.911
				c1.721-1.2,3.346-2.539,4.854-4.015c0.372-0.372,0.775-0.85,0.637-1.36c-0.096-0.34-0.393-0.563-0.701-0.744
				c-2.135-1.296-4.791-1.381-7.287-1.232c-4.185,0.244-8.349,1.03-12.343,2.316c1.328-2.571,2.316-5.322,2.932-8.147
				c0.096-0.457,0.17-0.988-0.117-1.36c-0.181-0.234-0.425-0.329-0.69-0.329c-0.531,0-1.168,0.372-1.615,0.754
				c-4.206,3.601-8.264,7.382-12.152,11.334l-0.202-0.202c-0.892-4.302-1.923-8.583-3.08-12.832l-3.41,0.382
				c-0.085,0.011-0.159,0.011-0.244,0.021h-0.011c-0.085-0.297-1.753-5.577-2.496-8.338l0.117-0.032
				c0.17-0.021,0.35-0.053,0.52-0.074c6.979-1.041,13.979-1.923,21-2.624c-0.786-13.852-2.241-27.65-4.387-41.353
				c-0.096-0.669,0.924-0.945,1.03-0.266c2.156,13.756,3.622,27.607,4.408,41.512c8.593-0.86,17.219-1.455,25.844-1.795
				L215.408,125.735z"/>
			<path style="fill:#079B86;" d="M185.48,72.078c-0.352,1.604-0.976,3.087-1.865,4.436c-0.126-1.219-0.252-2.438-0.378-3.657
				c0.707-1.315,1.414-2.63,2.121-3.945c0.323-0.601-0.595-1.135-0.92-0.531c-0.465,0.865-0.93,1.73-1.395,2.596
				c-0.17-1.64-0.339-3.279-0.509-4.919c-0.07-0.674-1.133-0.676-1.062,0.006c0.167,1.611,0.333,3.223,0.5,4.834
				c-0.51-0.391-1.02-0.782-1.53-1.173c-0.541-0.415-1.067,0.509-0.531,0.92c0.737,0.565,1.473,1.13,2.21,1.695
				c0.125,1.211,0.251,2.421,0.376,3.632c-0.494-0.44-0.989-0.879-1.483-1.319c-0.509-0.453-1.268,0.291-0.757,0.746
				c0.801,0.712,1.601,1.423,2.402,2.135c0.016,0.153,0.032,0.306,0.048,0.459c0.001,0.015,0.002,0.029,0.005,0.044l0.48,4.64
				c0.07,0.674,1.133,0.676,1.062-0.006c-0.158-1.53-0.317-3.061-0.475-4.591c1.331-1.704,2.265-3.613,2.731-5.735
				C186.654,71.68,185.627,71.407,185.48,72.078z"/>
			<path style="fill:#079B86;" d="M201.855,83.509c-1.426,0.961-2.852,1.922-4.278,2.883c0.313-0.626,0.626-1.251,0.939-1.877
				c0.304-0.609-0.614-1.144-0.92-0.531c-0.43,0.859-0.859,1.719-1.289,2.578c-0.12,0.241-0.047,0.466,0.102,0.618
				c-1.08,0.728-2.161,1.456-3.241,2.184c0.613-1.174,1.226-2.348,1.839-3.523c0.315-0.604-0.603-1.139-0.92-0.531
				c-0.771,1.476-1.541,2.953-2.312,4.429c-0.037,0.071-0.037,0.137-0.042,0.203c-0.464-0.106-0.72,0.409-0.553,0.761
				c-0.724,0.488-1.447,0.975-2.171,1.463c-0.565,0.381-0.041,1.305,0.526,0.923c0.926-0.624,1.852-1.248,2.778-1.872
				c1.062,0.321,2.123,0.641,3.185,0.962c0.654,0.198,0.922-0.83,0.268-1.028c-0.772-0.233-1.544-0.466-2.316-0.7
				c1.321-0.89,2.643-1.781,3.964-2.671c0.746,0.456,1.493,0.912,2.24,1.369c0.584,0.357,1.114-0.563,0.531-0.92
				c-0.601-0.367-1.201-0.734-1.802-1.101c1.333-0.899,2.667-1.797,4-2.696C202.946,84.051,202.423,83.126,201.855,83.509z"/>
			<path style="fill:#079B86;" d="M201.829,102.194c-0.874,0.747-1.748,1.493-2.622,2.24c0.193-0.437,0.386-0.873,0.579-1.31
				c0.273-0.619-0.644-1.157-0.92-0.531c-0.441,0.998-0.882,1.995-1.322,2.993c-0.046,0.105-0.049,0.205-0.036,0.3l-1.815,1.551
				c0.28-0.719,0.56-1.438,0.839-2.157c0.247-0.635-0.782-0.899-1.028-0.268c-0.428,1.099-0.855,2.198-1.283,3.296
				c-0.058,0.148-0.041,0.273,0.014,0.374c-0.921,0.787-1.843,1.574-2.764,2.361c-0.521,0.445,0.229,1.198,0.746,0.757l3.203-2.736
				c1.166-0.007,2.333-0.014,3.499-0.021c0.683-0.004,0.68-1.067-0.006-1.062c-0.747,0.005-1.494,0.009-2.241,0.014l1.995-1.704
				c0.037,0.009,0.069,0.025,0.111,0.026l2.719,0.082c0.684,0.021,0.678-1.042-0.006-1.062c-0.55-0.017-1.099-0.033-1.649-0.05
				c0.911-0.778,1.822-1.557,2.733-2.335C203.096,102.506,202.346,101.753,201.829,102.194z"/>
			<path style="fill:#079B86;" d="M183.414,102.437c-1.71-0.504-3.42-1.008-5.129-1.512c-0.467-0.966-0.935-1.932-1.402-2.898
				c-0.298-0.617-1.219-0.086-0.923,0.526c0.317,0.656,0.634,1.311,0.951,1.967c-0.924-0.273-1.849-0.545-2.773-0.818
				c0.071-1.111-0.692-2.13-1.418-2.951c-0.454-0.513-1.208,0.235-0.757,0.746c0.426,0.481,1.037,1.191,1.123,1.895
				c-0.948-0.28-1.896-0.559-2.844-0.839c-0.655-0.193-0.924,0.835-0.268,1.028c0.917,0.271,1.835,0.541,2.752,0.812
				c-0.469,0.461-1.267,0.571-1.877,0.674c-0.675,0.113-0.395,1.138,0.275,1.026c1.006-0.169,2.141-0.468,2.698-1.377
				c0.958,0.283,1.916,0.565,2.875,0.848c-0.563,0.222-1.125,0.443-1.687,0.665c-0.63,0.248-0.361,1.277,0.275,1.026
				c0.96-0.378,1.919-0.756,2.879-1.134c0.054-0.021,0.094-0.054,0.138-0.084c1.615,0.476,3.23,0.952,4.845,1.429
				C183.801,103.658,184.07,102.63,183.414,102.437z"/>
		</g>
		<g>
			<path style="fill:#EAB64E;" d="M129.314,98.319c0.032,0,0.064,0.011,0.096,0.011c1.392,4.175,2.772,8.349,4.175,12.534
				c0.287,0.882,0.584,1.774,0.882,2.656c0.085,0.244,0.159,0.489,0.244,0.733c0.308,0.786,0.52,1.88,0.637,3.165l-0.159,0.021
				c-5.12-6.373-10.229-12.736-15.349-19.11C122.898,98.478,126.297,98.085,129.314,98.319z"/>
			<path style="fill:#00B09C;" d="M142.146,69.564c-9.581,1.115-19.195,1.901-28.829,2.348c-3.431,0.17-6.862,0.287-10.304,0.361
				l-0.297-0.478c1.604-1.02,3.261-1.965,4.961-2.826c7.467-3.813,15.679-6.161,23.985-7.393c3.229-0.478,6.533-0.797,9.783-0.659
				c2.794,0.106,5.545,0.531,8.179,1.455c2.624,0.914,5.364,2.709,5.747,5.439C150.973,68.47,146.565,69.054,142.146,69.564z"/>
			<path style="fill:#FCD272;" d="M129.41,98.319c-0.032,0-0.064,0-0.096,0c-3.017-0.234-6.416,0.159-9.475,0.011
				c5.12,6.373,10.229,12.736,15.349,19.11l0.159-0.021c0.467,4.854-0.436,12.502-3.059,17.081l-0.351,0.436
				c-8.137-5.885-15.785-12.449-22.838-19.588l-0.032-1.232c0-0.117,0-0.223,0.011-0.34c0.127-6.671,0.351-13.32,0.68-19.981h-0.053
				c-0.69-0.191-1.349-0.457-1.976-0.786c-1.955-1.041-3.569-2.73-4.451-4.759c-0.627-1.445-0.882-3.155-0.17-4.546
				c0.797-1.54,2.666-2.326,4.387-2.146c1.71,0.191,3.25,1.232,4.376,2.539l0.308-0.149c0.807-3.951,1.19-7.999,1.137-12.035
				c9.634-0.446,19.248-1.232,28.829-2.348c0.775,6.628,0.967,13.331,0.563,20.002c-0.085,1.328-0.202,2.709-0.839,3.888
				c-0.967,1.774-2.921,2.751-4.833,3.431C134.731,97.703,131.927,98.096,129.41,98.319z"/>
			<path style="fill:#81DD8B;" d="M93.857,60.918c0.945-0.17,1.891-0.329,2.836-0.489c14.383-2.348,28.893-3.941,43.445-4.759
				c0.064-0.011,0.138-0.011,0.202-0.021c0.308,1.753,0.68,3.484,1.105,5.205v0.064c-3.25-0.138-6.554,0.181-9.783,0.659
				c-8.307,1.232-16.518,3.58-23.985,7.393l-0.021-0.042c-5.587-0.319-11.175-0.531-16.762-0.659
				c-0.064,0.117-0.138,0.234-0.212,0.351l-0.032-0.021c0.053-2.348-0.159-4.706-0.637-7C91.286,61.353,92.571,61.13,93.857,60.918z
				"/>
			<path style="fill:#5770EA;" d="M140.138,55.585v0.085c-14.553,0.818-29.063,2.411-43.445,4.759
				c-0.945,0.159-1.891,0.319-2.836,0.489c2.549-3.643,5.205-7.308,8.774-9.964c6.989-5.226,16.518-5.832,25.079-4.132
				c2.624,0.52,5.247,1.253,7.531,2.645C137.525,50.869,139.448,52.993,140.138,55.585z"/>
			<path style="fill:#5770EA;" d="M102.716,71.795l0.297,0.478c3.442-0.074,6.873-0.191,10.304-0.361
				c0.053,4.036-0.329,8.084-1.137,12.035l-0.308,0.149c-1.126-1.307-2.666-2.348-4.376-2.539c-1.721-0.181-3.59,0.605-4.387,2.146
				c-0.712,1.392-0.457,3.102,0.17,4.546c0.882,2.029,2.496,3.718,4.451,4.759c-1.551,2.953-3.24,5.97-5.991,7.85
				c-4.121,2.836-9.592,2.464-14.404,3.845c-4.854,1.381-9.135,4.684-11.716,9.018c-1.36,2.294-2.273,4.929-2.22,7.606
				c0.042,2.411,0.924,4.865,2.624,6.565c-0.467-0.266-0.903-0.584-1.296-0.956c-1.838-1.7-2.677-4.238-3.112-6.713
				c-0.425-2.475-0.531-5.014-1.243-7.425c-0.988-3.325-3.091-6.214-5.439-8.763c-1.445-1.572-3.027-3.102-3.867-5.067
				c-1.317-3.049-0.563-6.639,0.977-9.581c1.551-2.942,3.867-5.47,6.671-7.266c4.876-3.134,10.952-3.962,15.827-7.096
				c2.517-1.615,4.631-3.835,6.14-6.405c0.074-0.117,0.149-0.234,0.212-0.351c5.587,0.127,11.175,0.34,16.762,0.659l0.021,0.042
				C105.977,69.83,104.32,70.775,102.716,71.795z"/>
			<path style="fill:#3E56AF;" d="M109.705,93.794h0.053c-0.329,6.66-0.552,13.31-0.68,19.981h-0.085
				c-6.108,4.886-12.194,9.815-18.249,14.765l-0.425-0.52c-2.188,0.68-6.979,1.211-9.273,1.179
				c-1.742-0.021-3.527-0.414-5.024-1.307c-1.7-1.7-2.581-4.153-2.624-6.565c-0.053-2.677,0.86-5.311,2.22-7.606
				c2.581-4.334,6.862-7.637,11.716-9.018c4.812-1.381,10.282-1.009,14.404-3.845c2.751-1.88,4.44-4.897,5.991-7.85
				C108.356,93.337,109.015,93.603,109.705,93.794z"/>
			<path style="fill:#3E56AF;" d="M124.847,71.972c-0.276-0.514-1.03-0.642-1.558-0.714c-0.898-0.122-1.796,0.031-2.596,0.398
				c-0.138-0.075-0.305-0.1-0.483-0.021c-0.78,0.348-2.804,2.045-1.303,2.835c0.641,0.337,1.534-0.153,2.149-0.346
				c1.058-0.331,2.306-0.551,3.3-1.045C124.797,72.861,125.112,72.464,124.847,71.972z"/>
			<path style="fill:#3E56AF;" d="M140.227,71.701c-0.179-0.85-1.365-1.278-2.109-1.439c-0.843-0.183-1.667-0.112-2.457,0.153
				c-0.913,0.128-1.622,0.573-2.094,1.41c-0.203,0.36,0.061,0.784,0.463,0.797c1.587,0.052,3.174,0.123,4.761,0.156
				C139.506,72.792,140.433,72.678,140.227,71.701z"/>
			<path style="fill:#3E56AF;" d="M122.741,75.3c-0.455-0.194-0.892-0.041-1.184,0.277c-0.133,0.053-0.248,0.156-0.306,0.327
				c-0.271,0.793-0.289,1.734,0.101,2.496c0.304,0.596,0.922,1.003,1.587,0.727C124.334,78.547,124.017,75.844,122.741,75.3z"/>
			<path style="fill:#3E56AF;" d="M137.007,74.302c-0.37-0.239-0.763-0.225-1.091-0.053c-0.264-0.086-0.596-0.002-0.705,0.339
				c-0.239,0.746-0.258,1.544-0.046,2.295c0.033,0.162,0.069,0.323,0.126,0.457c0.043,0.103,0.104,0.189,0.17,0.267
				c0.271,0.418,0.696,0.727,1.232,0.57C138.157,77.746,138.154,75.043,137.007,74.302z"/>
			<path style="fill:#FFFFFF;" d="M129.741,93.613c-3.089-0.109-5.686-5.576-4.993-5.598c3.648-0.109,7.297-0.23,10.945-0.35
				C136.186,87.655,133.416,93.755,129.741,93.613z"/>
			<path style="fill:#E0A02F;" d="M132.453,82.813c0.003-0.047,0.012-0.092,0.003-0.144c-0.451-2.483-0.903-4.966-1.354-7.449
				c-0.122-0.674-1.148-0.394-1.026,0.275c0.424,2.33,0.847,4.66,1.271,6.989c-0.751,0.043-1.501,0.086-2.252,0.13
				c-0.68,0.039-0.679,1.102,0.006,1.062l2.867-0.165C132.368,83.489,132.526,83.112,132.453,82.813z"/>
			<path style="fill:#E0A02F;" d="M120.827,87.548c-1.392,1.37-3.675,1.158-4.886-0.35c-0.829-1.041-0.85-2.348-0.319-3.42
				c-0.011-0.085,0.011-0.181,0.074-0.276c0.212-0.319,0.489-0.584,0.775-0.818c0.244-0.202,0.51-0.404,0.829-0.542
				c0.085-0.032,0.17-0.043,0.255-0.043c0.988-0.34,2.114-0.234,3.027,0.499C122.123,83.862,122.25,86.146,120.827,87.548z"/>
		</g>
	</g>
	<g>
		<path style="fill:#FCD272;" d="M391.456,79.528v0.011c-0.053,0.021-0.096,0.032-0.149,0.032
			C391.35,79.56,391.403,79.549,391.456,79.528z"/>
		<g>
			<path style="fill:#5770EA;" d="M438.622,415.056c-14.839,7.106-29.7,14.213-44.539,21.319l-1.115-0.542
				c4.483-9.815,13.235-16.847,21.776-23.465l21.298-5.545l0.021,0.064C437.029,409.575,437.889,412.295,438.622,415.056z"/>
			<path style="fill:#00B09C;" d="M414.743,412.369l-7.457,1.944L366.422,306.9l-3.261-30.008l-4.908-45.198l-26.503-4.748
				l0.053-18.738c0.032-0.436,0.053-0.86,0.074-1.296c24.219,7.298,50.562,7.372,74.813,0.181c0.202-0.053,0.393-0.106,0.595-0.17
				l-4.026,91.809l35.351,107.423l-2.571,0.669L414.743,412.369z"/>
			<polygon style="fill:#079B86;" points="357.744,422.046 336.117,422.046 331.241,422.046 331.751,226.946 358.254,231.694 
				363.161,276.892 359.974,422.046 			"/>
			<path style="fill:#5770EA;" d="M358.583,434.039c-17.41,0.457-34.831,0.914-52.251,1.37v-0.021
				c8.402-7.138,18.865-11.812,29.785-13.32v-0.021h21.627C358.115,426.04,358.392,430.034,358.583,434.039z"/>
		</g>
		<g>
			<path style="fill:#5770EA;" d="M284.165,99.679l0.234-0.287c0.669-3.197,2.284-6.235,4.748-8.381
				c2.464-2.146,5.8-3.335,9.05-2.964c1.37,0.149,2.751,0.595,3.803,1.498c0.999,0.86,1.636,2.093,2.029,3.357
				c0.786,2.56,0.648,5.322,0.191,7.967c-1.848,10.803-8.647,19.981-13.278,29.923c-6.437-3.452-12.641-7.404-18.228-12.099
				c-3.495-2.921-6.809-6.225-8.827-10.314c-1.625-3.325-2.273-7.478-0.308-10.612c2.124-3.367,6.703-4.504,10.59-3.654
				C277.919,94.941,281.159,97.257,284.165,99.679z"/>
			<path style="fill:#60289C;" d="M331.659,165.803l-0.287,0.17l-20.384,12.513c-0.244-0.733-0.542-1.455-0.892-2.156
				c-0.021-0.032-0.032-0.074-0.053-0.106c-2.443-4.801-7.213-8.115-9.656-12.927c-0.021-0.043-0.042-0.085-0.064-0.127
				c3.165-1.466,6.66-3.08,8.955-4.143c0.531-2.857,0.999-5.725,1.423-8.604c0.244,0.244,0.499,0.489,0.743,0.722
				c-0.382,0.967-0.765,1.933-1.158,2.889l0.127,0.053C317.298,158.357,324.404,162.223,331.659,165.803z"/>
			<path style="fill:#60289C;" d="M356.905,100.604c2.135,2.528,4.26,5.056,6.384,7.584c0.871,1.041,1.774,2.103,2.911,2.804
				c5.874-4.153,11.515-8.625,16.9-13.395l-0.053-0.053c-0.276-1.009-0.563-2.018-0.839-3.027
				c7.085,0.786,14.117,1.997,21.053,3.633c1.848,0.68,4.026,2.167,5.046,3.261c5.035,5.481,7.181,13.809,5.513,21.085
				c0,0.011-0.011,0.021-0.011,0.032c-0.319,0.818-0.637,1.636-0.956,2.454c-0.382,0.988-0.775,1.976-1.158,2.964
				c-0.011,0-0.011,0.011-0.011,0.011c-2.804,7.138-5.598,14.276-8.402,21.415c-3.771,9.634-7.542,19.258-11.323,28.882
				c-1.413,3.59-2.847,7.234-5.216,10.272l-0.021,0.042c-18.6-6.968-37.284-14-55.055-22.764
				c-7.255-3.58-14.361-7.446-21.245-11.716l-0.127-0.053c0.393-0.956,0.775-1.923,1.158-2.889c1.413-3.59,2.772-7.191,4.09-10.824
				l-0.467-0.17c-0.616-0.404-1.243-0.807-1.859-1.211l0.127-0.191c1.678-7.351,3.452-14.68,5.279-21.988
				c1.646-4.695,3.888-9.018,7.977-12.566c4.132-3.58,9.178-5.821,14.414-7.319c4.684-1.168,9.39-2.209,14.128-3.112
				c-0.181,1.36-0.361,2.73-0.552,4.09C355.364,98.767,356.14,99.691,356.905,100.604z"/>
			<path style="fill:#60289C;" d="M386.721,188.568l0.021-0.042c2.369-3.038,3.803-6.681,5.216-10.272
				c3.782-9.624,7.552-19.248,11.323-28.882c1.137,19.237,2.273,38.474,3.41,57.722c-24.251,7.191-50.594,7.117-74.813-0.181
				c0.839-13.628,0.68-27.331-0.499-40.938l0.287-0.17C349.437,174.567,368.122,181.599,386.721,188.568z"/>
			<path style="fill:#FCD272;" d="M310.708,150.423c-1.859-1.795-3.707-3.59-5.566-5.386l-0.064-0.106
				c-2.826,1.763-6.076,2.857-9.369,3.473c-3.665,0.68-7.499,0.786-11.047-0.34c-3.548-1.137-6.777-3.633-8.2-7.074l-0.011-0.074
				c9.39-1.954,18.78-3.898,28.16-5.853c0.669-0.138,1.36-0.276,2.018-0.138c0.627,0.127,1.168,0.478,1.71,0.829
				c1.625,1.062,3.25,2.124,4.876,3.187c0.616,0.404,1.243,0.807,1.859,1.211l0.467,0.17c-1.317,3.633-2.677,7.234-4.09,10.824
				C311.207,150.912,310.952,150.667,310.708,150.423z"/>
			<path style="fill:#311A56;" d="M329.889,111.955c-0.024-0.682-1.086-0.68-1.062,0.006c0.349,9.931,0.698,19.862,1.048,29.794
				c0.024,0.682,1.086,0.68,1.062-0.006C330.587,131.817,330.238,121.886,329.889,111.955z"/>
			<path style="fill:#311A56;" d="M402.152,151.829c-5.821,12.679-13.058,24.639-21.599,35.669c-0.009-0.003-0.014-0.01-0.024-0.013
				c-24.451-8.057-47.741-19.312-69.26-33.44c0.002-0.004,0.005-0.006,0.007-0.011c2.282-5.551,4.563-11.102,6.845-16.653
				c15.031,6.221,30.063,12.443,45.094,18.664c0.082,0.034,0.162,0.046,0.238,0.043c-0.03,0.07-0.063,0.138-0.093,0.208
				c-0.269,0.62,0.648,1.158,0.92,0.531c7.733-17.856,16.925-35.034,27.491-51.374c0.371-0.574-0.549-1.104-0.92-0.531
				c-10.348,16.003-19.369,32.814-27.001,50.274c-0.033-0.025-0.06-0.053-0.104-0.071c-15.157-6.273-30.314-12.547-45.472-18.82
				c-0.088-0.081-0.206-0.129-0.337-0.14c-0.032-0.013-0.064-0.026-0.095-0.039c-0.56-0.232-1.044,0.482-0.68,0.819
				c-2.292,5.576-4.584,11.153-6.876,16.729c-0.321,0.161-0.47,0.689-0.068,0.954c21.689,14.306,45.197,25.679,69.868,33.826
				c0.088,0.386,0.547,0.67,0.847,0.285c8.765-11.242,16.19-23.423,22.139-36.379C403.354,151.744,402.437,151.207,402.152,151.829z
				"/>
			<path style="fill:#311A56;" d="M381.62,118.012c-0.627,3.647-4.188,1.401-5.576,0.656c-0.453-0.244-0.894-0.508-1.367-0.715
				c-1.034-0.453-2.042-0.71-3.167-0.585c-1.747,0.194-3.249,1.227-4.688,2.149c-2.457,1.574-4.643,2.727-7.627,1.729
				c-2.105-0.704-4.125-2.034-6.432-1.9c-1.999,0.117-3.477,1.454-5.092,2.47c-3.327,2.093-5.248-0.453-8.303-1.261
				c-3.614-0.955-7.398,1.016-8.952,4.329c-0.288,0.614,0.629,1.151,0.92,0.531c1.345-2.868,4.597-4.695,7.764-3.832
				c2.295,0.625,4.054,2.636,6.595,2.229c2.053-0.328,3.473-2.003,5.276-2.874c3.082-1.489,5.773,0.788,8.663,1.56
				c4.641,1.239,7.051-2.708,11.096-3.875c3.286-0.947,5.389,2.243,8.496,2.326c1.754,0.047,3.12-0.92,3.421-2.671
				C382.763,117.611,381.736,117.336,381.62,118.012z"/>
			<path style="fill:#311A56;" d="M375.447,129.119c-2.129,1.235-4.228,2.604-6.435,3.696c-3.602,1.783-6.144,1.008-9.529-0.508
				c-3.391-1.519-6.076-1.646-9.34,0.241c-2.021,1.168-3.998,2.709-6.466,2.578c-2.757-0.146-5.099-1.983-7.796-2.403
				c-2.852-0.444-5.806,0.907-6.044,4.01c-0.052,0.681,1.01,0.673,1.062-0.006c0.502-6.541,10.413-0.224,13.833-0.568
				c3.425-0.345,5.741-3.434,9.061-4.013c3.961-0.691,7.128,2.908,11.026,2.95c3.988,0.042,7.881-3.155,11.154-5.054
				C376.566,129.698,376.039,128.775,375.447,129.119z"/>
			<path style="fill:#311A56;" d="M369.53,143.744c-3.088,0.723-5.405-2.589-8.508-2.389c-3.148,0.203-5.329,3.057-8.445,3.402
				c-5.374,0.595-12.123-6.283-16.722-0.679c-0.43,0.524,0.313,1.285,0.746,0.757c4.519-5.507,12.135,2.642,17.827,0.625
				c3.357-1.19,5.599-4.126,9.443-2.333c1.997,0.931,3.65,2.179,5.934,1.644C370.472,144.613,370.195,143.588,369.53,143.744z"/>
			<path style="fill:#311A56;" d="M365.694,151.167c-3.104-1.173-6.45-0.828-9.262,0.929c-0.58,0.362-0.054,1.286,0.526,0.923
				c2.606-1.628,5.596-1.909,8.469-0.824C366.065,152.437,366.329,151.407,365.694,151.167z"/>
			<path style="fill:#311A56;" d="M348.623,175.948c-5.062,2.823-10.861-1.557-16.113,0.934c-0.619,0.294-0.088,1.214,0.526,0.923
				c5.204-2.468,10.914,1.966,16.113-0.934C349.747,176.537,349.22,175.615,348.623,175.948z"/>
			<path style="fill:#311A56;" d="M403.816,175.473c-5.737,2.952-13.635-1.076-18.069,4.786c-0.411,0.544,0.512,1.07,0.92,0.531
				c4.027-5.325,12.278-1.617,17.675-4.394C404.952,176.082,404.423,175.161,403.816,175.473z"/>
			<path style="fill:#311A56;" d="M403.714,165.701c-3.158-0.433-5.923,2.353-8.996,1.453c-0.656-0.192-0.925,0.836-0.268,1.028
				c3.25,0.951,5.793-1.893,8.996-1.453C404.115,166.821,404.392,165.794,403.714,165.701z"/>
			<path style="fill:#311A56;" d="M379.407,187.12c-4.661,1.88-8.844-1.027-13.236-2.231c-4.06-1.113-6.761,0.319-10.579,1.448
				c-7.55,2.232-14.914-6.657-22.16-1.925c-0.571,0.373-0.047,1.297,0.526,0.923c4.245-2.772,8.927-0.255,13.101,1.29
				c3.291,1.218,6.277,1.654,9.624,0.453c2.048-0.734,3.925-1.685,6.168-1.66c2.313,0.026,4.49,0.952,6.617,1.762
				c3.337,1.271,6.74,2.368,10.214,0.966C380.309,187.893,380.041,186.864,379.407,187.12z"/>
			<path style="fill:#311A56;" d="M405.086,184.402c-3.58,4.307-9.367,2.362-14.026,1.618c-3.868-0.618-7.41-0.13-10.716,2.066
				c-0.568,0.377-0.044,1.302,0.526,0.923c5.225-3.471,10.113-1.537,15.793-0.918c3.372,0.368,6.907-0.211,9.169-2.932
				C406.266,184.637,405.523,183.877,405.086,184.402z"/>
			<path style="fill:#311A56;" d="M405.213,194.054c-5.911,3.516-11.906-4.188-18.093-1.405c-3.556,1.6-5.449,4.205-9.787,3.196
				c-2.65-0.616-5.178-2.052-7.976-1.831c-2.767,0.219-4.717,2.354-7.337,2.973c-3.313,0.783-6.467-1.268-9.424-2.417
				c-2.557-0.994-4.929-1.265-7.621-0.742c-3.896,0.756-7.93,2.747-11.683,0.391c-0.579-0.364-1.11,0.557-0.531,0.92
				c2.389,1.5,5.049,1.475,7.745,0.901c4.171-0.888,7.564-2.079,11.754-0.457c2.702,1.047,5.394,2.68,8.384,2.64
				c3.086-0.041,5.167-2.487,8.068-3.051c3.485-0.678,6.666,1.702,10.055,2.013c2.908,0.268,4.881-1.22,7.231-2.694
				c4.102-2.572,7.54-0.733,11.612,0.672c2.736,0.944,5.548,1.349,8.128-0.186C406.327,194.627,405.801,193.704,405.213,194.054z"/>
			<path style="fill:#311A56;" d="M406.388,204.549c-2.049-1.149-4.185-0.935-6.324-0.094c-3.737,1.468-6.38,3.715-10.633,2.521
				c-2.789-0.783-5.389-2.322-8.355-2.332c-3.268-0.012-6.061,2.039-9.284,2.281c-3.332,0.251-6.504-1.191-9.679-1.947
				c-3.13-0.746-5.704-0.473-8.801,0.282c-4.142,1.01-7.539-0.022-11.491-1.177c-3.126-0.913-6.224-1.461-9.373-0.364
				c-0.643,0.224-0.372,1.251,0.275,1.026c6.612-2.304,12.803,3.205,19.525,1.858c3.721-0.746,6.627-1.392,10.415-0.386
				c2.732,0.726,5.448,1.772,8.311,1.793c2.788,0.021,5.155-1.321,7.793-1.983c3.505-0.879,6.385,0.67,9.62,1.73
				c2.556,0.837,4.92,1.008,7.447-0.032c3.171-1.305,6.482-4.243,10.023-2.257C406.453,205.803,406.986,204.884,406.388,204.549z"/>
		</g>
		<g>
			<path style="fill:#EAB64E;" d="M355.141,93.764c0.51-3.739,1.009-7.478,1.508-11.217v-0.011c4.504-1.349,13.14-4.079,13.14-4.079
				l0.127,0.074c-4.196,7.436-8.54,14.807-13.012,22.073c-0.765-0.914-1.54-1.838-2.316-2.751
				C354.78,96.493,354.961,95.123,355.141,93.764z"/>
			<path style="fill:#FCD272;" d="M382.207,94.518c0.276,1.009,0.563,2.018,0.839,3.027l0.053,0.053
				c-5.385,4.769-11.026,9.241-16.9,13.395c-1.137-0.701-2.039-1.763-2.911-2.804c-2.124-2.528-4.249-5.056-6.384-7.584
				c4.472-7.266,8.817-14.638,13.012-22.073l-0.127-0.074c0,0-8.636,2.73-13.14,4.079c-0.053,0.021-0.106,0.032-0.149,0.042h-0.011
				c-3.601,0.85-7.298,1.285-10.994,1.317c-1.03,0-2.093-0.032-3.006-0.499c-0.818-0.425-1.434-1.168-1.912-1.955
				c-1.179-1.955-1.636-4.238-2.039-6.48c-1.763-9.826-2.804-19.757-3.845-29.689l-0.011-0.191c1.838-0.138,3.675-0.425,5.502-0.722
				c8.466-1.338,16.943-2.687,25.409-4.036c0.839-0.127,1.848-0.202,2.379,0.457c0.297,0.382,0.351,0.892,0.393,1.37
				c0.425,5.141,0.775,10.282,1.052,15.424l0.223,0.127c0.829-1.551,1.88-2.974,3.112-4.228c0.489-0.489,1.041-0.977,1.731-1.126
				c0.372-0.074,0.733-0.053,1.083,0.064c0.744,0.234,1.402,0.829,1.827,1.519c1.094,1.785,0.967,4.111,0.181,6.044
				c-0.669,1.668-1.774,3.112-2.921,4.504C376.959,74.537,379.488,84.554,382.207,94.518z"/>
			<path style="fill:#5770EA;" d="M371.914,33.493c1.243,6.225,2.475,12.449,3.718,18.674l-0.064,0.244
				c-0.351-0.117-0.712-0.138-1.083-0.064c-0.69,0.149-1.243,0.637-1.731,1.126c-1.232,1.253-2.284,2.677-3.112,4.228l-0.223-0.127
				c-0.276-5.141-0.627-10.282-1.052-15.424c-0.043-0.478-0.096-0.988-0.393-1.37c-0.531-0.659-1.54-0.584-2.379-0.457
				c-8.466,1.349-16.943,2.698-25.409,4.036c-1.827,0.297-3.665,0.584-5.502,0.722c-1.37,0.117-2.741,0.138-4.111,0.021
				c-3.208-0.276-6.448-1.402-8.668-3.739c-0.605-0.637-1.147-1.381-1.317-2.252c-0.181-0.86,0.064-1.848,0.765-2.369
				c0.584-0.436,1.349-0.489,2.071-0.51c2.911-0.074,5.832,0.159,8.742,0.266c12.024,0.425,24.123-1.477,35.436-5.566
				c0.892-0.319,1.891-0.648,2.741-0.255C371.362,31.145,371.691,32.398,371.914,33.493z"/>
			<path style="fill:#3E56AF;" d="M360.008,49.919c-1.221-1.513-3.869-0.944-5.401-0.038c-0.6,0.175-1.177,0.466-1.401,1.003
				c-0.241,0.579,0.031,1.242,0.658,1.417c0.357,0.1,0.679-0.022,1.006-0.142c0.855-0.315,1.568-0.582,2.502-0.448
				c0.804,0.115,1.817,0.706,2.556,0.074C360.481,51.312,360.442,50.457,360.008,49.919z"/>
			<path style="fill:#3E56AF;" d="M343.336,51.79c-1.129-0.39-2.266-0.211-3.209,0.355c-0.615,0.136-1.221,0.373-1.521,0.968
				c-0.263,0.521-0.236,1.203,0.228,1.606c0.555,0.482,1.264,0.25,1.851-0.017c0.581-0.263,1.123-0.498,1.759-0.591
				c0.568-0.083,1.114,0.045,1.67-0.01c0.532-0.053,0.965-0.461,0.84-1.032C344.806,52.39,343.914,51.99,343.336,51.79z"/>
			<path style="fill:#3E56AF;" d="M357.403,53.248c-0.284-0.253-0.647-0.321-0.983-0.249c-0.175-0.097-0.389-0.091-0.555,0.119
				c-0.502,0.633-0.79,1.399-0.654,2.216c0.106,0.637,0.537,1.289,1.234,1.34C358.102,56.798,358.403,54.137,357.403,53.248z"/>
			<path style="fill:#3E56AF;" d="M342.976,55.544c-0.571-0.202-1.01-0.006-1.314,0.372c-0.131,0.054-0.24,0.16-0.284,0.342
				c-0.032,0.134-0.062,0.272-0.09,0.411c-0.193,0.67-0.149,1.46,0.158,1.927c0.12,0.182,0.286,0.296,0.466,0.378
				c0.428,0.313,0.987,0.42,1.478,0.133C344.581,58.41,344.243,55.992,342.976,55.544z"/>
			<path style="fill:#E0A02F;" d="M352.677,66.981c-1.052,0.199-2.105,0.397-3.157,0.596c-0.373-3.826-0.747-7.651-1.12-11.477
				c-0.066-0.675-1.129-0.677-1.062,0.006c0.387,3.967,0.774,7.933,1.161,11.9c0.002,0.018,0.011,0.03,0.014,0.046
				c-0.066,0.332,0.199,0.755,0.644,0.671c1.265-0.239,2.53-0.477,3.795-0.716C353.625,67.88,353.346,66.855,352.677,66.981z"/>
			<path style="fill:#E0A02F;" d="M365.806,66.57c-1.731,1.519-4.961,1.625-6.065-0.712c-0.69-1.466-0.287-3.059,0.648-4.281
				c-0.042-0.117-0.032-0.255,0.074-0.393c1.317-1.731,3.92-2.178,5.555-0.595C367.718,62.247,367.559,65.03,365.806,66.57z"/>
			<path style="fill:#FFFFFF;" d="M351.88,77.448c-2.932,0.393-5.247-1.816-5.524-4.642c-0.011-0.117,0.021-0.212,0.074-0.287
				c0-0.202,0.117-0.382,0.382-0.425c2.741-0.382,5.492-0.765,8.232-1.147c0.191-0.021,0.35,0.053,0.467,0.159
				c0.202,0.011,0.382,0.127,0.425,0.382C356.448,74.272,354.812,77.055,351.88,77.448z"/>
		</g>
	</g>
	<g>
		<polygon style="fill:#3E56AF;" points="313.074,308.619 309.07,323.512 305.915,323.512 207.669,323.512 203.654,323.512 
			199.363,308.619 		"/>
		<polygon style="fill:#5770EA;" points="305.915,323.512 291.596,432.826 220.841,432.826 207.669,323.512 		"/>
		<path style="fill:#F7F7F7;" d="M290.47,374.126c0,0.27,0,0.54,0,0.809c-0.039,0.27-0.064,0.552-0.116,0.822
			c-0.167,0.861-0.475,1.657-0.964,2.377c-2.557,3.752-4.882,7.657-7.323,11.473c-0.899,1.388-1.76,2.801-2.66,4.188
			c-0.604,0.938-1.478,1.542-2.505,1.927c-0.72,0.257-1.452,0.257-2.197,0.231c-0.437-0.013-0.874,0-1.31-0.013
			c-1.824-0.013-3.636-0.039-5.448-0.064c-0.064,0-0.128,0-0.218,0c-0.039,1.953-0.077,3.893-0.103,5.884
			c-0.051-0.064-0.077-0.09-0.09-0.128c-2.454-4.253-4.908-8.505-7.349-12.758c-0.026-0.051-0.039-0.077-0.039-0.116
			s0.013-0.077,0.039-0.116c1.979-3.662,3.957-7.323,5.936-10.985c0.463-0.861,0.938-1.722,1.4-2.582
			c0.039-0.077,0.077-0.141,0.141-0.193c-0.051,2.236-0.116,4.471-0.167,6.72c3.52,0.026,7.028,0.051,10.561,0.09
			c-2.749-4.805-5.499-9.585-8.261-14.377c2.261-1.298,4.523-2.608,6.784-3.906c2.158-1.246,4.304-2.48,6.463-3.726
			c0.039,0.051,0.064,0.103,0.103,0.154c2.171,3.803,4.355,7.619,6.527,11.422c0.424,0.732,0.617,1.542,0.732,2.364
			C290.432,373.792,290.445,373.959,290.47,374.126z"/>
		<path style="fill:#F7F7F7;" d="M282.093,347.222c-0.039,0.09-0.051,0.128-0.077,0.18c-2.377,4.278-4.741,8.557-7.118,12.848
			c-0.026,0.039-0.039,0.064-0.077,0.09c-0.026,0.013-0.064,0.039-0.116,0.039c-1.323,0.064-2.647,0.128-3.97,0.193
			c-1.76,0.09-3.508,0.167-5.268,0.257c-2.043,0.103-4.086,0.206-6.129,0.308c-0.09,0-0.18,0-0.283-0.026
			c1.94-1.118,3.88-2.223,5.846-3.34c-1.786-3.032-3.572-6.051-5.358-9.084c-2.698,4.844-5.37,9.675-8.069,14.518
			c-2.454-1.349-4.908-2.698-7.362-4.047c-2.017-1.105-4.021-2.21-6.039-3.315c0.013-0.051,0.039-0.09,0.064-0.141
			c2.158-3.88,4.304-7.773,6.475-11.653c0.398-0.707,0.976-1.259,1.606-1.76c0.899-0.707,1.902-1.156,3.032-1.349
			c0.206-0.039,0.411-0.051,0.617-0.09c0.334,0,0.668,0,1.002,0c0.45,0.077,0.899,0.218,1.349,0.231
			c1.478,0.039,2.955,0.026,4.433,0.051c1.041,0,2.069,0.013,3.096,0.026c1.311,0.013,2.608,0.026,3.919,0.051
			c1.028,0.013,2.056,0.013,3.071,0.026c0.797,0.013,1.58,0,2.377,0.039c0.321,0.013,0.655,0.116,0.976,0.18
			c1.362,0.27,2.364,1.028,3.058,2.223c1.233,2.12,2.493,4.24,3.739,6.36c0.026,0.051,0.051,0.09,0.09,0.154
			C278.676,349.214,280.372,348.224,282.093,347.222z"/>
		<path style="fill:#F7F7F7;" d="M256.295,388.76c0,2.557,0,5.126,0,7.696c-0.064,0-0.128,0-0.193,0c-4.047,0-8.081,0-12.116,0
			c-0.488,0-0.976,0.026-1.452-0.039c-2.428-0.373-4.343-1.529-5.422-3.79c-1.529-3.199-3.276-6.283-4.908-9.418
			c-1.208-2.3-2.467-4.574-3.649-6.887c-0.771-1.529-0.784-3.109,0.116-4.625c1.272-2.146,2.544-4.291,3.829-6.437
			c0.013-0.039,0.039-0.077,0.064-0.128c-1.696-1.002-3.366-2.004-5.049-3.006c0-0.013,0-0.026,0-0.039c0.051,0,0.103,0,0.154,0
			c4.895,0,9.79,0,14.685,0c0.064,0,0.103,0.013,0.141,0.026s0.077,0.051,0.103,0.103c2.724,4.407,5.46,8.827,8.184,13.233
			c0.013,0.026,0.026,0.039,0.039,0.064c-0.013,0.013-0.013,0.013-0.026,0.026c-1.914-1.169-3.829-2.326-5.756-3.495
			c-1.76,3.032-3.508,6.051-5.281,9.096c5.525,0,11.011,0,16.535,0C256.295,383.685,256.295,386.216,256.295,388.76z"/>
	</g>
</g>
<g id="DESIGNED_BY_FREEPIK">
	<g>
		<g id="XMLID_30_">
			<g id="XMLID_49_">
				<path id="XMLID_57_" style="fill:#112129;" d="M260.104,471.331c-0.432,0.443-0.803,0.931-1.108,1.453l-0.465-0.241
					c-0.067-0.298-0.349-0.503-0.659-0.466c-0.331,0.039-0.568,0.339-0.529,0.67c0.039,0.331,0.339,0.568,0.67,0.529
					c0.065-0.008,0.127-0.026,0.184-0.052l0.451,0.234c-0.251,0.554-0.433,1.139-0.539,1.744l0.747,0.132
					c0.23-1.306,0.85-2.507,1.792-3.473L260.104,471.331z"/>
				<path id="XMLID_56_" style="fill:#112129;" d="M265.592,469.029c-0.171,0-0.341,0.006-0.51,0.017l-0.074-0.626
					c0.188-0.149,0.296-0.389,0.266-0.645c-0.046-0.393-0.402-0.674-0.795-0.628c-0.393,0.046-0.674,0.402-0.628,0.795
					c0.03,0.254,0.189,0.461,0.404,0.564l0.074,0.624c-0.714,0.116-1.403,0.332-2.06,0.646l0.327,0.684
					c0.934-0.447,1.942-0.673,2.995-0.673c0.496,0,0.993,0.053,1.475,0.158l0.161-0.741
					C266.692,469.087,266.142,469.029,265.592,469.029z"/>
				<path id="XMLID_55_" style="fill:#112129;" d="M272.194,471.576c0.331-0.04,0.566-0.341,0.525-0.672
					c-0.04-0.331-0.341-0.566-0.672-0.526c-0.309,0.038-0.535,0.304-0.53,0.609l-0.416,0.363c-0.418-0.43-0.889-0.813-1.408-1.139
					l-0.404,0.641c1.134,0.715,2.021,1.726,2.563,2.925l0.691-0.313c-0.251-0.554-0.568-1.072-0.942-1.545l0.402-0.351
					C272.065,471.581,272.129,471.584,272.194,471.576z"/>
				<path id="XMLID_54_" style="fill:#112129;" d="M265.044,479.237c-0.386,0.023-0.775,0.035-1.157,0.035
					c-0.88,0-1.733-0.061-2.478-0.179c-0.39-0.062-0.846-0.155-1.27-0.292c1.046,1.861,3.069,3.125,5.388,3.125
					c2.855,0,5.262-1.916,5.95-4.504c-0.682,0.449-1.505,0.825-2.459,1.123C267.839,478.912,266.463,479.152,265.044,479.237z"/>
				<path id="XMLID_50_" style="fill:#112129;" d="M265.592,470.545c-3.352,0-6.08,2.666-6.08,5.943
					c0,0.426,0.046,0.849,0.137,1.261c0.674,0.483,2.706,0.89,5.348,0.731c2.879-0.173,5.297-0.957,6.672-2.159
					c-0.005-0.195-0.021-0.39-0.045-0.582C271.244,472.778,268.65,470.545,265.592,470.545z M263.432,477.06
					c-1.02,0-1.85-0.83-1.85-1.85c0-1.02,0.83-1.85,1.85-1.85c1.02,0,1.85,0.83,1.85,1.85
					C265.282,476.23,264.452,477.06,263.432,477.06z M268.17,476.151c-0.75,0-1.36-0.61-1.36-1.36c0-0.75,0.61-1.361,1.36-1.361
					c0.75,0,1.361,0.61,1.361,1.361C269.53,475.541,268.92,476.151,268.17,476.151z"/>
			</g>
			<path id="XMLID_47_" style="fill:#112129;" d="M281.595,472.412c-0.295-0.116-0.805-0.309-1.382-0.237
				c-0.551,0.069-0.844,0.341-0.844,1.007v0.866h2.228v1.717h-2.228v5.455h-1.932v-5.455h-1.34v-1.717h1.34v-0.888
				c0-1.68,0.896-2.783,2.568-2.783c0.643,0,1.157,0.122,1.59,0.308L281.595,472.412z"/>
			<path id="XMLID_45_" style="fill:#112129;" d="M286.298,475.744c-0.177-0.03-0.358-0.046-0.526-0.046
				c-0.896,0-1.51,0.548-1.51,1.613v3.908h-1.932v-7.172h1.873v0.785c0.451-0.673,1.14-0.977,2.021-0.977
				c0.414,0,0.848,0.128,1.094,0.337L286.298,475.744z"/>
			<path id="XMLID_42_" style="fill:#112129;" d="M293.965,477.622c0,0.222-0.015,0.489-0.037,0.651h-5.085
				c0.207,1.036,0.933,1.488,1.843,1.488c0.622,0,1.295-0.252,1.813-0.688l1.133,1.243c-0.814,0.748-1.85,1.088-3.057,1.088
				c-2.198,0-3.723-1.495-3.723-3.753c0-2.258,1.48-3.797,3.627-3.797C292.544,473.855,293.958,475.387,293.965,477.622z
				 M288.851,476.956h3.175c-0.177-0.918-0.733-1.436-1.562-1.436C289.554,475.52,289.021,476.068,288.851,476.956z"/>
			<path id="XMLID_39_" style="fill:#112129;" d="M301.618,477.622c0,0.222-0.015,0.489-0.037,0.651h-5.085
				c0.207,1.036,0.932,1.488,1.843,1.488c0.622,0,1.295-0.252,1.814-0.688l1.132,1.243c-0.814,0.748-1.85,1.088-3.057,1.088
				c-2.198,0-3.723-1.495-3.723-3.753c0-2.258,1.48-3.797,3.627-3.797C300.197,473.855,301.611,475.387,301.618,477.622z
				 M296.504,476.956h3.175c-0.178-0.918-0.733-1.436-1.562-1.436C297.207,475.52,296.674,476.068,296.504,476.956z"/>
			<path id="XMLID_36_" style="fill:#112129;" d="M309.964,477.629c0,2.154-1.495,3.775-3.471,3.775
				c-0.962,0-1.643-0.378-2.109-0.933v3.708h-1.924v-10.133h1.887v0.792c0.466-0.585,1.155-0.984,2.139-0.984
				C308.469,473.855,309.964,475.476,309.964,477.629z M304.287,477.629c0,1.132,0.747,1.976,1.843,1.976
				c1.14,0,1.85-0.881,1.85-1.976c0-1.095-0.71-1.976-1.85-1.976C305.035,475.653,304.287,476.497,304.287,477.629z"/>
			<path id="XMLID_33_" style="fill:#112129;" d="M313.068,471.701c0,0.696-0.54,1.229-1.236,1.229
				c-0.696,0-1.229-0.533-1.229-1.229c0-0.696,0.533-1.243,1.229-1.243C312.527,470.457,313.068,471.005,313.068,471.701z
				 M312.809,481.219h-1.932v-7.172h1.932V481.219z"/>
			<path id="XMLID_31_" style="fill:#112129;" d="M316.032,476.601l2.702-2.554h2.368l-3.479,3.375l3.501,3.797h-2.376l-2.716-2.901
				v2.901H314.1v-10.658h1.932V476.601z"/>
		</g>
		<g>
			<path style="fill:#112129;" d="M184.412,481.154v-1.055c-0.527,0.718-1.391,1.23-2.387,1.23c-1.846,0-3.149-1.406-3.149-3.706
				c0-2.256,1.289-3.721,3.149-3.721c0.952,0,1.816,0.469,2.387,1.245v-3.765h1.099v9.77H184.412z M184.412,479.235v-3.208
				c-0.395-0.615-1.245-1.143-2.124-1.143c-1.421,0-2.27,1.172-2.27,2.739c0,1.567,0.85,2.724,2.27,2.724
				C183.168,480.349,184.017,479.851,184.412,479.235z"/>
			<path style="fill:#112129;" d="M186.932,477.609c0-2.051,1.465-3.706,3.486-3.706c2.139,0,3.398,1.67,3.398,3.794v0.279h-5.727
				c0.088,1.333,1.025,2.446,2.549,2.446c0.805,0,1.626-0.322,2.182-0.894l0.527,0.718c-0.703,0.703-1.655,1.084-2.812,1.084
				C188.441,481.33,186.932,479.821,186.932,477.609z M190.404,474.812c-1.509,0-2.256,1.274-2.314,2.358h4.643
				C192.718,476.115,192.015,474.812,190.404,474.812z"/>
			<path style="fill:#112129;" d="M194.607,480.217l0.571-0.791c0.469,0.542,1.362,1.011,2.329,1.011c1.084,0,1.67-0.513,1.67-1.216
				c0-1.714-4.38-0.659-4.38-3.281c0-1.098,0.952-2.036,2.636-2.036c1.201,0,2.051,0.454,2.622,1.025l-0.513,0.762
				c-0.424-0.513-1.201-0.894-2.109-0.894c-0.967,0-1.567,0.483-1.567,1.113c0,1.552,4.38,0.527,4.38,3.281
				c0,1.187-0.952,2.138-2.783,2.138C196.306,481.33,195.325,480.978,194.607,480.217z"/>
			<path style="fill:#112129;" d="M201.477,472.336c0-0.41,0.337-0.747,0.732-0.747c0.41,0,0.747,0.337,0.747,0.747
				c0,0.41-0.337,0.732-0.747,0.732C201.814,473.068,201.477,472.746,201.477,472.336z M201.667,481.154v-7.075h1.099v7.075H201.667
				z"/>
			<path style="fill:#112129;" d="M204.582,482.97l0.556-0.82c0.586,0.703,1.289,0.967,2.3,0.967c1.172,0,2.27-0.571,2.27-2.124
				v-1.011c-0.513,0.718-1.377,1.26-2.373,1.26c-1.845,0-3.149-1.377-3.149-3.662c0-2.27,1.289-3.676,3.149-3.676
				c0.952,0,1.802,0.469,2.373,1.245v-1.069h1.099v6.87c0,2.344-1.641,3.076-3.369,3.076
				C206.237,484.025,205.417,483.791,204.582,482.97z M209.709,479.118v-3.091c-0.381-0.615-1.23-1.143-2.109-1.143
				c-1.421,0-2.27,1.128-2.27,2.695c0,1.553,0.849,2.695,2.27,2.695C208.478,480.275,209.328,479.733,209.709,479.118z"/>
			<path style="fill:#112129;" d="M217.413,481.154v-4.629c0-1.245-0.63-1.641-1.582-1.641c-0.865,0-1.685,0.527-2.095,1.099v5.17
				h-1.099v-7.075h1.099v1.025c0.498-0.586,1.464-1.201,2.519-1.201c1.48,0,2.256,0.747,2.256,2.285v4.966H217.413z"/>
			<path style="fill:#112129;" d="M219.932,477.609c0-2.051,1.465-3.706,3.486-3.706c2.138,0,3.398,1.67,3.398,3.794v0.279h-5.727
				c0.088,1.333,1.025,2.446,2.549,2.446c0.806,0,1.626-0.322,2.183-0.894l0.527,0.718c-0.703,0.703-1.655,1.084-2.812,1.084
				C221.441,481.33,219.932,479.821,219.932,477.609z M223.404,474.812c-1.509,0-2.256,1.274-2.314,2.358h4.643
				C225.718,476.115,225.015,474.812,223.404,474.812z"/>
			<path style="fill:#112129;" d="M233.35,481.154v-1.055c-0.527,0.718-1.392,1.23-2.388,1.23c-1.845,0-3.149-1.406-3.149-3.706
				c0-2.256,1.289-3.721,3.149-3.721c0.952,0,1.817,0.469,2.388,1.245v-3.765h1.098v9.77H233.35z M233.35,479.235v-3.208
				c-0.396-0.615-1.245-1.143-2.124-1.143c-1.421,0-2.27,1.172-2.27,2.739c0,1.567,0.849,2.724,2.27,2.724
				C232.105,480.349,232.954,479.851,233.35,479.235z"/>
			<path style="fill:#112129;" d="M239.692,481.154v-9.77h1.098v3.765c0.572-0.776,1.421-1.245,2.388-1.245
				c1.845,0,3.149,1.465,3.149,3.721c0,2.299-1.304,3.706-3.149,3.706c-0.996,0-1.86-0.513-2.388-1.23v1.055H239.692z
				 M242.9,480.349c1.436,0,2.286-1.157,2.286-2.724c0-1.568-0.85-2.739-2.286-2.739c-0.864,0-1.728,0.527-2.109,1.143v3.208
				C241.171,479.851,242.036,480.349,242.9,480.349z"/>
			<path style="fill:#112129;" d="M247.529,482.927c0.161,0.073,0.425,0.117,0.601,0.117c0.483,0,0.806-0.161,1.055-0.747
				l0.469-1.069l-2.959-7.148h1.187l2.358,5.8l2.344-5.8h1.201l-3.545,8.51c-0.425,1.025-1.143,1.421-2.08,1.435
				c-0.234,0-0.601-0.044-0.805-0.103L247.529,482.927z"/>
		</g>
	</g>
</g>
</svg>
